HIERARCHY
ROOT pelvis
{
	OFFSET 0.000000 0.000000 0.000000
	CHANNELS 6 Xposition Yposition Zposition Zrotation Xrotation Yrotation
	JOINT lfemur
	{
		OFFSET 11.446000 0.000000 0.000000
		CHANNELS 3 Zrotation Xrotation Yrotation
		JOINT ltibia
		{
			OFFSET 0.000000 -42.030400 0.000000
			CHANNELS 3 Zrotation Xrotation Yrotation
			JOINT lfoot
			{
				OFFSET 0.000000 -39.930200 0.000000
				CHANNELS 3 Zrotation Xrotation Yrotation
				JOINT ltoes
				{
					OFFSET 0.000000 0.000000 11.775800
					CHANNELS 3 Zrotation Xrotation Yrotation
					End Site
					{
					    OFFSET 0.000000 0.000000 5.000000
					}
				}
			}
		}
	}
	JOINT rfemur
	{
		OFFSET -11.446000 0.000000 0.000000
		CHANNELS 3 Zrotation Xrotation Yrotation
		JOINT rtibia
		{
			OFFSET 0.000000 -42.030400 0.000000
			CHANNELS 3 Zrotation Xrotation Yrotation
			JOINT rfoot
			{
				OFFSET 0.000000 -39.930200 0.000000
				CHANNELS 3 Zrotation Xrotation Yrotation
				JOINT rtoes
				{
					OFFSET 0.000000 0.000000 11.775800
					CHANNELS 3 Zrotation Xrotation Yrotation
					End Site
					{
					    OFFSET 0.000000 0.000000 5.000000
					}
				}
			}
		}
	}
	JOINT thorax
	{
		OFFSET 0.000000 11.255600 -5.000000
		CHANNELS 3 Zrotation Xrotation Yrotation
		JOINT head
		{
			OFFSET 0.000000 43.799300 0.000000
			CHANNELS 3 Zrotation Xrotation Yrotation
			End Site
			{
			    OFFSET 0.000000 5.000000 0.000000
			}
		}
		JOINT lclavicle
		{
			OFFSET 0.000000 39.863000 0.000000
			CHANNELS 3 Zrotation Xrotation Yrotation
			JOINT lhumerus
			{
				OFFSET 17.380600 4.958300 0.000000
				CHANNELS 3 Zrotation Xrotation Yrotation
				JOINT lradius
				{
					OFFSET 0.000000 -27.561300 0.000000
					CHANNELS 3 Zrotation Xrotation Yrotation
					JOINT lhand
					{
						OFFSET 0.000000 -26.933000 0.000000
						CHANNELS 3 Zrotation Xrotation Yrotation
						End Site
						{
						    OFFSET 0.000000 -5.000000 0.000000
						}
					}
				}
			}
		}
		JOINT rclavicle
		{
			OFFSET 0.000000 39.863000 0.000000
			CHANNELS 3 Zrotation Xrotation Yrotation
			JOINT rhumerus
			{
				OFFSET -17.380600 4.958300 0.000000
				CHANNELS 3 Zrotation Xrotation Yrotation
				JOINT rradius
				{
					OFFSET 0.000000 -27.561300 0.000000
					CHANNELS 3 Zrotation Xrotation Yrotation
					JOINT rhand
					{
						OFFSET 0.000000 -26.933000 0.000000
						CHANNELS 3 Zrotation Xrotation Yrotation
						End Site
						{
						    OFFSET 0.000000 -5.000000 0.000000
						}
					}
				}
			}
		}
	}
}
MOTION
Frames:	9
Frame Time:	0.0333333
6.54673 87.4752 -95.3599 -0.132698 5.87668 -0.961956 -1.12211 -8.66639 -3.17696 0.0613493 20.0848 -0.274538 1.35605 -4.0663 5.94868 -0 -5 -0 2.05388 -8.9219 3.16201 -0.0683219 22.0926 0.0993375 -1.55034 -4.02516 -13.2309 3.97569e-016 -5 -0 0.991045 3.01202 -0.947843 3.27638 -13.8002 -8.07994 -3.31043e-032 1.59028e-015 1.19271e-015 9.4614 -6.80375 -19.6343 14.2287 -21.5987 5.89804 -0.19866 -1.77184 -12.7168 -3.31043e-032 1.59028e-015 1.19271e-015 -7.46489 -3.99568 16.6608 -17.2147 -25.2354 -7.6387 0.0434395 -0.822561 5.86668 
6.4762 87.4778 -95.4272 -0.378985 5.92443 -0.924337 -0.806268 -8.94767 -3.15095 0.0628419 20.3729 -0.275595 1.34785 -4.06444 5.87521 1.81393e-016 -5 -1.99544e-016 2.42171 -8.8997 3.44426 -0.0672114 21.8648 0.10059 -1.53113 -3.80909 -13.6515 5.36701e-016 -5 1.59635e-015 1.25306 3.2705 -0.914883 3.50199 -13.8495 -7.65356 4.96962e-017 -1.59028e-015 3.97569e-016 9.47715 -6.80007 -19.7797 14.5138 -21.9602 6.0582 -0.211829 -1.82887 -13.1341 4.96962e-017 -1.59028e-015 3.97569e-016 -7.44676 -4.15957 16.6887 -17.2607 -25.2888 -7.6665 0.0363965 -0.750445 5.35106 
6.47047 87.4746 -95.4324 -0.353162 5.92716 -1.02578 -0.821069 -9.09267 -3.03107 0.0634794 20.5295 -0.275902 1.35121 -4.11848 5.85535 -3.15568e-016 -5 -1.99544e-016 2.38943 -8.89989 3.48592 -0.0646477 21.7764 0.0974716 -1.5278 -3.7952 -13.6093 3.97569e-016 -5 -0 1.25929 3.31901 -0.800994 3.42087 -13.7904 -8.01656 1.98785e-016 -1.59028e-015 -3.97569e-016 9.41761 -6.93184 -19.5764 14.3971 -21.8126 5.9924 -0.216477 -1.84877 -13.2799 1.98785e-016 -1.59028e-015 -3.97569e-016 -7.44099 -4.0121 17.124 -17.3444 -25.3859 -7.7174 0.0243941 -0.611046 4.35422 
6.46738 87.4771 -95.456 -0.345331 5.86398 -0.837483 -0.795706 -8.9091 -3.0042 0.0633492 20.5291 -0.275913 1.3482 -4.27865 5.60737 -3.23048e-017 -5 1.99544e-016 2.41117 -8.7909 3.58522 -0.0675919 21.7477 0.109421 -1.54923 -3.80916 -13.8176 -0 -5 -0 1.24774 3.44562 -1.14058 3.30005 -13.7582 -8.063 -4.96962e-017 0 3.97569e-016 9.43112 -6.72401 -19.5137 14.4985 -21.941 6.04953 -0.209052 -1.81696 -13.0473 -4.96962e-017 0 3.97569e-016 -7.38623 -4.11451 17.1578 -17.2464 -25.2723 -7.65792 0.0267388 -0.638603 4.55184 
6.48465 87.4681 -95.5074 -0.349015 6.04235 -0.775006 -0.814998 -9.18278 -3.06503 0.0630567 20.4935 -0.275852 1.33034 -4.09317 5.62011 -3.97569e-016 -5 -0 2.38368 -9.06733 3.53488 -0.0657431 21.7916 0.108091 -1.55209 -3.81129 -13.8113 1.05358e-015 -5 -1.59635e-015 1.30637 3.33851 -1.16264 3.43787 -13.2427 -8.03873 1.98785e-016 -1.59028e-015 -0 9.3462 -6.60758 -19.4941 14.4154 -21.8358 6.00272 -0.205202 -1.8005 -12.9265 1.98785e-016 -1.59028e-015 -0 -7.4648 -3.98496 17.0336 -17.5289 -25.5989 -7.82955 0.0532771 -0.91428 6.52232 
6.47914 87.4931 -95.4937 -0.328749 6.13186 -0.954361 -0.8315 -9.14412 -3.03076 0.0628685 20.4785 -0.275826 1.35325 -4.22337 5.76354 -9.69143e-017 -5 5.98632e-016 2.3614 -9.13108 3.5188 -0.0644444 21.7846 0.107985 -1.52143 -3.74912 -13.5721 3.97569e-016 -5 -0 1.30617 3.36276 -0.929871 3.45442 -13.3909 -8.14723 -1.49089e-016 1.59028e-015 -0 9.30913 -6.56327 -19.6865 14.394 -21.8088 5.99075 -0.195919 -1.75979 -12.6288 -1.49089e-016 1.59028e-015 -0 -7.42769 -4.13665 16.7392 -17.4629 -25.523 -7.78939 0.0653699 -1.01284 7.23047 
6.47882 87.4646 -95.4908 -0.367399 6.03177 -0.953479 -0.811599 -9.13983 -3.16025 0.0626303 20.4582 -0.275792 1.35733 -4.17498 5.89075 3.47873e-016 -5 -0 2.39382 -9.04511 3.4763 -0.0627293 21.7791 0.105762 -1.53065 -3.79989 -13.5721 -1.05358e-015 -5 1.59635e-015 1.41377 3.84878 -0.847447 3.47541 -13.7776 -8.19441 1.49089e-016 1.59028e-015 -0 9.31592 -6.79353 -19.6271 14.4374 -21.8637 6.01512 -0.205695 -1.80281 -12.9429 1.49089e-016 1.59028e-015 -0 -7.38436 -4.35995 16.8612 -17.4211 -25.4747 -7.76397 0.0420269 -0.808454 5.7656 
6.49007 87.4764 -95.5157 -0.272801 6.10176 -1.01123 -0.934519 -9.21951 -3.22258 0.0613409 20.2412 -0.275417 1.33545 -3.86482 6.04193 1.73914e-017 -5 1.99544e-016 2.2769 -9.15775 3.42545 -0.0675211 21.8227 0.119349 -1.54261 -3.81717 -13.4855 1.05358e-015 -5 -1.59635e-015 1.34582 3.93153 -0.669851 3.42751 -13.9787 -8.21458 -4.96962e-017 0 -0 9.39242 -6.75717 -19.9489 14.441 -21.8683 6.01716 -0.181622 -1.69477 -12.1546 -4.96962e-017 0 -0 -7.35861 -4.31635 16.9702 -17.6479 -25.7359 -7.90229 0.0332715 -0.716968 5.11131 
6.49867 87.4744 -95.5274 -0.250021 6.10077 -1.05447 -0.967855 -9.23063 -3.23754 0.0620123 20.4186 -0.275759 1.34942 -4.00166 6.03656 1.98785e-016 -5 -0 2.24475 -9.2431 3.40941 -0.0678123 21.9246 0.112744 -1.53229 -3.83098 -13.3979 7.95139e-016 -5 -0 1.38715 4.23801 -0.529832 3.48004 -14.0777 -8.18296 -5.51738e-033 1.59028e-015 1.98785e-016 9.39776 -7.0204 -20.005 14.2959 -21.6842 5.9356 -0.189106 -1.72884 -12.4027 -5.51738e-033 1.59028e-015 1.98785e-016 -7.41565 -4.42686 17.1914 -17.7419 -25.8434 -7.95971 0.03809 -0.755929 5.38974 
